<svg id="svg" version="1.1" xmlns="http://www.w3.org/2000/svg" xmlns:xlink="http://www.w3.org/1999/xlink" width="400" height="264.2857142857143" viewBox="0, 0, 400,264.2857142857143"><g id="svgg"><path id="path0" d="M328.942 24.572 C 328.473 25.000,328.090 25.535,328.090 25.762 C 328.090 25.988,327.981 26.173,327.847 26.173 C 327.714 26.173,327.397 26.738,327.143 27.429 C 326.889 28.120,326.581 28.798,326.460 28.936 C 326.339 29.074,326.239 29.356,326.239 29.561 C 326.239 30.040,323.371 35.953,322.920 36.404 C 322.734 36.590,322.497 37.131,322.395 37.605 C 322.170 38.646,321.327 40.386,320.696 41.110 C 320.442 41.401,319.950 42.528,319.602 43.615 C 319.254 44.702,318.701 45.986,318.374 46.469 C 318.047 46.952,317.779 47.413,317.779 47.493 C 317.779 47.574,317.617 48.015,317.420 48.473 C 317.222 48.931,316.863 49.977,316.622 50.798 C 316.381 51.618,316.008 52.435,315.792 52.614 C 315.576 52.793,315.400 53.052,315.400 53.189 C 315.400 53.326,315.102 54.088,314.739 54.883 C 314.375 55.677,314.078 56.484,314.078 56.676 C 314.078 56.867,313.840 57.299,313.549 57.634 C 313.258 57.969,313.018 58.374,313.015 58.534 C 313.012 58.693,312.599 59.597,312.097 60.542 C 310.878 62.839,310.781 63.055,310.102 64.975 C 309.779 65.887,309.235 66.898,308.893 67.223 C 308.551 67.547,308.269 67.944,308.266 68.106 C 308.254 68.879,306.894 72.587,306.443 73.076 C 306.163 73.380,305.558 74.757,305.099 76.137 C 304.640 77.517,304.093 78.835,303.883 79.066 C 303.674 79.297,303.503 79.598,303.503 79.734 C 303.503 79.870,303.283 80.396,303.013 80.903 C 302.744 81.410,302.381 82.261,302.206 82.794 C 302.032 83.328,301.717 83.908,301.507 84.083 C 301.296 84.257,301.124 84.587,301.124 84.815 C 301.124 85.043,300.599 86.307,299.957 87.625 C 299.315 88.942,298.464 90.769,298.064 91.685 C 297.665 92.601,297.119 93.468,296.852 93.611 C 296.584 93.755,296.365 94.031,296.365 94.225 C 296.365 94.935,295.272 97.977,294.693 98.876 C 294.061 99.859,293.338 101.486,293.047 102.578 C 292.950 102.941,292.408 104.174,291.842 105.318 C 291.276 106.462,290.813 107.543,290.813 107.721 C 290.813 107.899,290.467 108.748,290.045 109.607 C 288.918 111.902,287.905 114.194,287.905 114.450 C 287.905 114.573,287.742 114.810,287.542 114.975 C 287.343 115.141,286.851 116.177,286.450 117.277 C 286.048 118.377,285.507 119.476,285.247 119.718 C 284.987 119.960,284.417 121.272,283.979 122.633 C 283.541 123.995,282.949 125.363,282.663 125.674 C 282.377 125.985,281.815 127.250,281.414 128.486 C 281.013 129.722,280.465 131.049,280.197 131.435 C 279.929 131.821,279.709 132.215,279.709 132.309 C 279.709 132.404,279.480 132.984,279.200 133.599 C 278.920 134.214,278.609 135.041,278.510 135.435 C 278.411 135.830,278.246 136.153,278.143 136.153 C 278.040 136.153,277.511 137.135,276.967 138.334 C 276.424 139.534,275.866 140.694,275.727 140.912 C 275.346 141.513,274.865 142.608,273.908 145.057 C 273.728 145.519,273.353 146.102,273.076 146.354 C 272.798 146.605,272.571 147.031,272.571 147.302 C 272.571 147.572,272.455 148.000,272.313 148.252 C 272.171 148.505,271.930 149.211,271.777 149.823 C 271.624 150.434,271.232 151.267,270.905 151.673 C 270.103 152.671,269.771 153.423,269.239 155.453 C 268.991 156.398,268.642 157.350,268.463 157.568 C 268.150 157.948,266.755 160.878,266.755 161.154 C 266.755 161.228,266.219 162.403,265.565 163.767 C 264.911 165.130,264.375 166.357,264.375 166.493 C 264.375 166.629,264.154 166.996,263.883 167.308 C 263.612 167.621,263.124 168.680,262.799 169.662 C 262.474 170.644,261.871 171.876,261.460 172.399 C 261.049 172.923,260.463 174.113,260.158 175.043 C 259.852 175.974,259.211 177.330,258.732 178.057 C 258.218 178.836,257.666 180.193,257.387 181.362 C 257.127 182.452,256.821 183.463,256.707 183.609 C 256.231 184.217,255.448 185.795,255.132 186.781 C 254.946 187.363,254.407 188.567,253.933 189.456 C 253.459 190.346,252.931 191.499,252.759 192.019 C 252.356 193.243,250.519 195.544,249.544 196.048 C 248.786 196.440,247.191 195.506,247.191 194.670 C 247.191 194.533,246.704 193.672,246.109 192.756 C 245.514 191.840,244.848 190.656,244.630 190.126 C 244.411 189.595,243.845 188.566,243.373 187.839 C 242.900 187.112,242.380 186.125,242.218 185.646 C 242.056 185.167,241.696 184.453,241.419 184.060 C 241.142 183.666,240.826 183.047,240.716 182.683 C 240.607 182.320,240.433 181.904,240.330 181.758 C 240.228 181.613,239.935 180.929,239.680 180.238 C 239.425 179.547,239.115 178.982,238.991 178.982 C 238.868 178.982,238.688 178.714,238.593 178.387 C 238.143 176.848,237.062 174.327,236.745 174.077 C 236.303 173.728,235.072 171.066,234.859 169.998 C 234.771 169.559,234.616 169.200,234.515 169.200 C 234.178 169.200,232.975 167.139,232.530 165.798 C 232.288 165.070,232.008 164.438,231.908 164.392 C 231.807 164.347,231.249 163.395,230.668 162.276 C 230.086 161.158,229.299 159.663,228.919 158.954 C 228.540 158.245,228.076 157.197,227.890 156.625 C 227.703 156.053,227.330 155.301,227.060 154.954 C 226.790 154.608,226.569 154.191,226.568 154.029 C 226.567 153.867,226.400 153.415,226.196 153.025 C 225.993 152.635,225.748 151.960,225.653 151.526 C 225.557 151.091,225.195 150.429,224.847 150.053 C 224.100 149.247,223.541 148.091,223.130 146.499 C 222.966 145.864,222.368 144.758,221.802 144.042 C 221.236 143.326,220.696 142.329,220.602 141.826 C 220.507 141.323,220.339 140.912,220.227 140.912 C 220.116 140.912,219.871 140.525,219.685 140.053 C 219.498 139.580,219.205 139.015,219.035 138.797 C 218.865 138.579,218.564 137.984,218.367 137.475 C 218.169 136.966,217.921 136.489,217.815 136.415 C 217.544 136.225,215.995 132.833,215.995 132.430 C 215.995 132.247,215.813 131.897,215.592 131.652 C 215.160 131.174,213.364 126.987,213.356 126.438 C 213.353 126.256,213.242 126.107,213.109 126.107 C 212.745 126.107,211.649 124.014,211.235 122.528 C 211.034 121.807,210.714 121.059,210.524 120.867 C 210.046 120.383,208.952 118.443,208.718 117.662 C 208.611 117.307,208.141 116.471,207.673 115.805 C 207.205 115.140,206.676 114.151,206.497 113.609 C 206.318 113.067,206.080 112.624,205.968 112.624 C 205.855 112.624,205.433 111.821,205.030 110.839 C 204.626 109.858,203.786 107.984,203.164 106.675 C 202.541 105.367,201.878 103.880,201.691 103.371 C 201.505 102.862,201.279 102.386,201.191 102.313 C 200.753 101.954,199.809 100.095,199.449 98.885 C 199.086 97.660,198.745 97.070,197.860 96.131 C 197.701 95.962,197.356 95.172,197.094 94.376 C 196.832 93.580,196.545 92.868,196.457 92.796 C 196.021 92.435,194.865 90.434,194.589 89.561 C 194.418 89.018,194.163 88.503,194.024 88.416 C 193.736 88.239,193.019 86.685,192.324 84.732 C 192.065 84.005,191.769 83.351,191.667 83.278 C 191.360 83.060,190.588 81.434,190.053 79.878 C 189.776 79.072,189.456 78.348,189.342 78.268 C 188.756 77.857,187.946 76.305,187.530 74.796 C 187.255 73.801,186.827 72.912,186.493 72.644 C 186.179 72.394,185.648 71.502,185.311 70.662 C 184.975 69.822,184.632 69.075,184.550 69.002 C 184.163 68.660,182.980 66.683,182.809 66.094 C 182.704 65.730,182.227 64.762,181.750 63.941 C 181.273 63.121,180.631 61.931,180.323 61.297 C 179.663 59.939,178.297 57.897,177.124 56.516 C 176.664 55.974,176.084 55.141,175.836 54.665 C 175.587 54.190,174.897 53.283,174.300 52.652 C 172.091 50.310,171.315 49.434,171.315 49.282 C 171.315 49.105,168.351 46.221,166.248 44.352 C 165.473 43.663,164.303 42.622,163.650 42.038 C 162.996 41.455,162.378 40.978,162.277 40.978 C 162.175 40.978,161.639 40.562,161.085 40.054 C 160.532 39.546,159.950 39.130,159.793 39.129 C 159.635 39.128,158.981 38.636,158.339 38.035 C 157.697 37.434,156.558 36.657,155.809 36.309 C 155.061 35.961,154.291 35.487,154.100 35.257 C 153.771 34.861,151.238 33.578,150.777 33.574 C 150.552 33.572,150.038 33.312,148.050 32.197 C 147.396 31.829,146.563 31.441,146.200 31.335 C 145.836 31.228,144.587 30.683,143.424 30.125 C 140.322 28.635,138.054 27.828,134.463 26.938 C 132.703 26.501,130.668 25.929,129.941 25.666 C 126.499 24.420,128.151 24.455,72.783 24.455 C 36.074 24.455,20.564 24.539,20.365 24.738 C 20.163 24.939,20.389 25.618,21.144 27.088 C 21.729 28.224,22.208 29.309,22.208 29.499 C 22.208 29.689,22.676 30.594,23.248 31.511 C 23.820 32.429,24.373 33.536,24.478 33.972 C 24.583 34.408,25.126 35.443,25.685 36.271 C 26.244 37.099,26.702 37.872,26.703 37.989 C 26.703 38.106,27.095 38.857,27.573 39.656 C 28.051 40.456,28.664 41.705,28.935 42.432 C 29.206 43.159,29.766 44.251,30.180 44.859 C 30.593 45.467,30.932 46.044,30.932 46.140 C 30.932 46.916,31.897 49.317,32.528 50.111 C 32.955 50.649,33.507 51.758,33.754 52.577 C 34.001 53.395,34.582 54.609,35.045 55.274 C 35.508 55.939,36.047 56.950,36.243 57.521 C 36.439 58.092,36.939 59.069,37.353 59.692 C 37.768 60.314,38.339 61.347,38.621 61.986 C 38.950 62.728,39.492 63.369,40.123 63.761 L 41.110 64.375 79.709 64.514 L 118.308 64.653 121.084 65.353 C 124.928 66.323,126.503 66.827,127.500 67.409 C 127.970 67.684,129.009 68.163,129.808 68.474 C 130.608 68.786,131.560 69.310,131.923 69.639 C 132.287 69.968,133.199 70.551,133.951 70.933 C 134.703 71.316,135.727 72.049,136.225 72.563 C 136.724 73.076,137.239 73.498,137.370 73.500 C 137.923 73.509,143.394 79.197,143.885 80.274 C 144.041 80.618,144.258 80.899,144.366 80.899 C 144.475 80.899,144.900 81.464,145.312 82.155 C 145.724 82.845,146.205 83.648,146.382 83.939 C 146.763 84.566,149.872 90.844,150.179 91.606 C 150.296 91.897,150.588 92.759,150.829 93.523 C 151.069 94.286,151.372 94.911,151.502 94.911 C 151.803 94.911,152.472 96.203,153.071 97.943 C 153.328 98.691,153.908 99.708,154.361 100.203 C 154.813 100.698,155.378 101.703,155.616 102.435 C 155.855 103.168,156.199 103.946,156.381 104.164 C 156.564 104.382,157.300 105.750,158.018 107.204 C 158.735 108.658,159.458 110.086,159.624 110.377 C 160.450 111.826,162.318 116.069,162.592 117.118 C 162.763 117.773,163.108 118.546,163.359 118.837 C 164.090 119.684,164.591 120.602,165.025 121.889 C 165.248 122.550,165.790 123.485,166.231 123.967 C 166.671 124.450,167.238 125.515,167.490 126.335 C 167.743 127.155,168.098 128.004,168.279 128.222 C 168.461 128.440,168.699 128.916,168.808 129.280 C 168.918 129.643,169.093 130.000,169.198 130.073 C 169.304 130.145,169.641 130.740,169.949 131.395 C 170.257 132.049,170.632 132.763,170.783 132.981 C 170.933 133.199,171.477 134.270,171.991 135.360 C 172.506 136.451,173.208 137.878,173.553 138.533 C 173.897 139.187,174.259 140.170,174.357 140.717 C 174.455 141.265,174.941 142.198,175.437 142.791 C 175.934 143.386,176.532 144.540,176.771 145.365 C 177.008 146.188,177.655 147.494,178.208 148.268 C 178.761 149.043,179.292 150.037,179.389 150.478 C 179.486 150.919,179.842 151.687,180.179 152.184 C 180.517 152.681,181.048 153.650,181.360 154.337 C 181.672 155.023,182.039 155.763,182.175 155.981 C 182.311 156.200,182.846 157.270,183.363 158.361 C 183.880 159.451,184.415 160.522,184.552 160.740 C 184.688 160.958,184.926 161.432,185.080 161.794 C 185.235 162.155,185.522 162.809,185.718 163.248 C 185.914 163.686,186.210 164.483,186.376 165.018 C 186.542 165.554,187.031 166.435,187.462 166.978 C 187.893 167.520,188.438 168.629,188.673 169.441 C 188.908 170.254,189.367 171.238,189.693 171.628 C 190.019 172.017,190.548 172.910,190.869 173.610 C 191.189 174.311,191.682 175.301,191.964 175.810 C 192.246 176.319,192.778 177.389,193.148 178.189 C 193.517 178.989,193.932 179.822,194.070 180.040 C 194.207 180.258,194.743 181.328,195.260 182.419 C 195.777 183.510,196.312 184.580,196.448 184.798 C 197.016 185.707,198.058 188.162,198.323 189.217 C 198.480 189.840,198.702 190.350,198.817 190.350 C 199.159 190.350,200.318 192.512,200.659 193.787 C 200.834 194.442,201.364 195.453,201.836 196.034 C 202.309 196.616,202.845 197.545,203.026 198.099 C 203.208 198.654,203.761 199.721,204.254 200.471 C 204.748 201.221,205.289 202.254,205.455 202.768 C 205.621 203.281,205.961 203.999,206.210 204.362 C 206.458 204.726,206.887 205.558,207.162 206.213 C 207.437 206.867,208.068 208.176,208.563 209.121 C 209.058 210.066,209.665 211.498,209.912 212.303 C 210.158 213.108,210.778 214.314,211.288 214.982 C 211.798 215.650,212.359 216.776,212.535 217.484 C 212.710 218.192,213.220 219.231,213.668 219.793 C 214.116 220.355,214.695 221.366,214.954 222.040 C 215.512 223.488,216.281 225.062,216.520 225.248 C 216.659 225.356,218.487 229.029,219.940 232.122 C 220.111 232.485,220.535 233.318,220.883 233.972 C 221.230 234.627,221.705 235.792,221.938 236.562 C 222.171 237.332,222.762 238.487,223.253 239.129 C 223.743 239.771,224.228 240.688,224.331 241.166 C 224.737 243.050,226.758 245.638,228.346 246.305 C 229.423 246.757,269.356 246.836,271.434 246.390 C 272.691 246.120,273.893 244.802,273.893 243.694 C 273.893 243.501,274.358 242.434,274.925 241.324 C 275.493 240.214,276.044 239.027,276.149 238.688 C 276.253 238.348,277.199 236.286,278.250 234.104 C 279.301 231.923,280.371 229.663,280.628 229.081 C 280.885 228.500,281.360 227.726,281.684 227.363 C 282.019 226.987,282.535 225.699,282.883 224.372 C 283.272 222.890,283.768 221.698,284.246 221.097 C 284.659 220.577,284.997 219.937,284.997 219.675 C 284.997 219.413,285.102 219.133,285.231 219.054 C 285.360 218.974,285.549 218.461,285.652 217.914 C 285.755 217.368,286.303 216.038,286.872 214.959 C 287.440 213.881,287.905 212.892,287.905 212.761 C 287.905 212.485,289.006 210.076,290.837 206.344 C 291.551 204.890,292.135 203.536,292.135 203.336 C 292.135 203.136,292.611 202.275,293.192 201.423 C 293.774 200.571,294.250 199.751,294.250 199.601 C 294.250 198.867,295.630 195.512,296.222 194.809 C 296.591 194.370,296.894 193.806,296.894 193.555 C 296.894 193.305,296.996 192.987,297.122 192.849 C 297.248 192.711,297.495 192.003,297.671 191.276 C 297.847 190.549,298.152 189.775,298.349 189.556 C 298.547 189.338,299.085 188.208,299.547 187.045 C 300.281 185.196,302.806 179.836,303.470 178.718 C 303.813 178.142,304.216 177.141,304.565 176.001 C 304.733 175.452,305.146 174.675,305.484 174.274 C 305.822 173.873,306.404 172.607,306.778 171.461 C 307.153 170.315,307.691 169.129,307.974 168.826 C 308.257 168.523,308.799 167.323,309.178 166.160 C 309.557 164.997,310.204 163.331,310.616 162.459 C 311.028 161.586,311.518 160.456,311.704 159.947 C 311.891 159.438,312.410 158.367,312.859 157.568 C 313.659 156.140,313.968 155.468,315.650 151.487 C 316.825 148.707,317.072 148.219,317.456 147.916 C 317.642 147.770,318.149 146.586,318.583 145.286 C 319.017 143.985,319.601 142.678,319.879 142.379 C 320.158 142.081,320.642 141.005,320.955 139.987 C 321.489 138.249,321.897 137.280,323.004 135.126 C 323.256 134.634,323.828 133.514,324.273 132.637 C 324.812 131.577,325.364 130.892,325.923 130.593 C 326.384 130.345,326.914 130.016,327.100 129.862 C 327.345 129.659,327.592 129.704,327.998 130.025 C 329.353 131.102,329.275 127.748,329.337 187.839 C 329.401 251.240,329.253 245.999,330.993 246.372 C 333.054 246.814,368.315 246.790,368.564 246.346 C 368.670 246.156,369.006 245.715,369.309 245.366 C 369.613 245.017,369.861 244.600,369.861 244.441 C 369.861 244.281,369.862 196.801,369.863 138.929 C 369.865 81.058,369.865 31.725,369.863 29.301 L 369.861 24.894 368.971 24.344 C 368.090 23.800,367.869 23.794,348.937 23.794 L 329.794 23.794 328.942 24.572 M147.651 118.478 C 146.895 118.858,146.341 119.442,145.722 120.510 C 145.244 121.335,144.567 122.426,144.217 122.935 C 142.529 125.389,136.900 131.041,135.492 131.693 C 134.911 131.963,134.114 132.515,133.722 132.920 C 133.330 133.326,132.566 133.818,132.025 134.013 C 131.483 134.209,130.449 134.718,129.726 135.144 C 128.437 135.905,124.223 137.416,121.877 137.960 C 118.237 138.803,114.247 138.855,67.150 138.667 C 20.760 138.482,20.217 138.486,19.753 138.998 C 19.027 139.800,19.034 244.385,19.760 245.798 L 20.225 246.702 39.383 246.689 L 58.541 246.676 59.131 245.546 L 59.720 244.415 59.737 213.434 C 59.745 196.394,59.833 182.242,59.932 181.985 C 60.272 181.098,60.943 180.517,62.359 179.883 L 63.780 179.247 90.231 179.247 C 116.826 179.247,121.231 179.123,127.826 178.197 C 128.843 178.054,130.330 177.861,131.130 177.768 C 131.930 177.675,132.822 177.457,133.113 177.284 C 133.956 176.781,137.195 175.716,138.797 175.415 C 139.627 175.259,143.780 173.544,146.200 172.358 C 146.709 172.108,147.987 171.516,149.042 171.042 C 150.096 170.568,150.958 170.088,150.958 169.976 C 150.958 169.864,151.523 169.573,152.214 169.329 C 153.928 168.725,154.951 168.162,155.618 167.458 C 155.926 167.132,156.684 166.608,157.301 166.293 C 157.919 165.978,158.881 165.254,159.439 164.684 C 159.998 164.115,160.579 163.648,160.730 163.648 C 160.881 163.648,161.217 163.440,161.477 163.186 C 161.736 162.931,162.649 162.188,163.505 161.533 C 167.162 158.738,168.073 157.139,167.104 155.211 C 166.842 154.689,166.478 153.787,166.295 153.206 C 166.112 152.624,165.761 151.910,165.515 151.619 C 164.703 150.659,164.230 149.745,163.805 148.314 C 163.574 147.537,162.981 146.297,162.487 145.559 C 161.992 144.821,161.375 143.622,161.115 142.895 C 160.854 142.168,160.449 141.319,160.214 141.009 C 159.577 140.167,154.761 130.370,154.384 129.147 C 154.204 128.566,153.806 127.735,153.499 127.300 C 152.666 126.122,152.368 125.487,151.913 123.921 C 151.686 123.141,151.254 122.217,150.952 121.870 C 150.651 121.522,150.047 120.489,149.610 119.575 C 149.174 118.660,148.793 117.919,148.764 117.928 C 148.735 117.937,148.234 118.184,147.651 118.478 " stroke="none" fill="#1d1d1d" fill-rule="evenodd"></path><path id="path1" d="M0.000 132.188 L 0.000 264.375 200.000 264.375 L 400.000 264.375 400.000 132.188 L 400.000 0.000 200.000 0.000 L 0.000 0.000 0.000 132.188 M370.787 21.367 C 371.374 21.708,372.170 22.513,372.577 23.177 L 373.309 24.373 373.301 134.705 C 373.296 195.388,373.217 245.417,373.124 245.880 C 372.886 247.071,371.420 248.452,370.196 248.640 C 369.648 248.724,368.835 248.908,368.388 249.050 C 366.904 249.519,331.351 249.382,329.731 248.901 C 328.351 248.491,327.306 247.496,326.920 246.221 C 326.824 245.906,326.732 222.291,326.715 193.743 C 326.682 139.566,326.674 139.169,325.577 138.367 C 325.142 138.049,325.021 138.181,324.230 139.837 C 323.752 140.837,323.247 141.726,323.108 141.812 C 322.969 141.898,322.710 142.593,322.532 143.357 C 322.344 144.164,321.793 145.303,321.217 146.078 C 320.671 146.811,320.137 147.823,320.029 148.325 C 319.730 149.724,318.630 152.311,318.193 152.644 C 317.978 152.807,317.510 153.952,317.153 155.188 C 316.365 157.911,316.193 158.361,315.942 158.361 C 315.836 158.361,315.415 159.223,315.007 160.278 C 314.599 161.332,313.450 163.865,312.453 165.907 C 311.457 167.949,310.641 169.795,310.641 170.009 C 310.641 170.565,309.639 172.388,308.900 173.175 C 308.554 173.544,308.192 174.258,308.094 174.762 C 307.859 175.983,306.763 178.458,306.297 178.823 C 305.938 179.104,305.791 179.518,304.930 182.680 C 304.712 183.478,304.321 184.371,304.060 184.663 C 303.799 184.956,303.310 185.968,302.973 186.913 C 302.635 187.859,301.915 189.524,301.371 190.615 C 299.608 194.150,298.480 196.563,298.480 196.798 C 298.480 196.924,298.028 197.696,297.475 198.514 C 296.923 199.331,296.143 201.016,295.744 202.258 C 295.321 203.570,294.811 204.644,294.525 204.823 C 294.255 204.992,293.913 205.641,293.765 206.266 C 293.254 208.432,292.702 210.210,292.445 210.524 C 292.044 211.013,290.813 213.399,290.813 213.688 C 290.813 214.034,289.200 217.690,287.753 220.621 C 287.108 221.930,286.580 223.179,286.580 223.397 C 286.580 223.615,286.108 224.418,285.530 225.180 C 284.952 225.942,284.405 226.894,284.315 227.295 C 283.982 228.776,283.130 230.840,282.629 231.377 C 282.345 231.682,281.795 232.956,281.406 234.208 C 281.018 235.459,280.492 236.781,280.238 237.145 C 279.686 237.934,278.652 240.171,278.652 240.574 C 278.652 241.195,276.175 246.042,275.410 246.920 C 273.543 249.060,273.948 249.028,249.438 249.018 C 223.757 249.009,224.286 249.093,223.136 244.823 C 222.968 244.201,222.620 243.465,222.361 243.187 C 222.102 242.909,221.564 242.001,221.166 241.169 C 220.768 240.337,220.334 239.478,220.201 239.260 C 220.068 239.042,219.470 237.911,218.872 236.748 C 218.274 235.585,217.568 234.217,217.302 233.708 C 216.730 232.615,215.730 230.339,215.730 230.131 C 215.730 230.051,215.490 229.660,215.196 229.262 C 214.902 228.864,214.357 227.665,213.985 226.596 C 213.614 225.527,213.072 224.400,212.781 224.091 C 212.156 223.426,211.369 221.759,211.113 220.555 C 211.012 220.083,210.848 219.696,210.748 219.696 C 210.439 219.696,208.861 216.875,208.689 216.015 C 208.599 215.568,208.432 215.202,208.317 215.202 C 208.201 215.202,207.903 214.666,207.653 214.012 C 207.403 213.358,207.115 212.822,207.012 212.822 C 206.910 212.822,206.669 212.346,206.477 211.765 C 206.285 211.183,206.048 210.707,205.949 210.707 C 205.763 210.707,204.309 207.623,203.965 206.498 C 203.857 206.145,203.566 205.640,203.319 205.374 C 203.072 205.109,202.532 203.876,202.119 202.633 C 201.707 201.391,201.234 200.291,201.069 200.188 C 200.563 199.871,199.620 198.053,199.297 196.770 C 199.129 196.101,198.801 195.343,198.570 195.086 C 197.666 194.081,197.443 193.741,197.060 192.790 C 196.456 191.286,195.541 189.477,195.196 189.104 C 195.026 188.920,194.749 188.351,194.581 187.841 C 194.413 187.331,194.191 186.913,194.088 186.913 C 193.865 186.913,192.630 184.277,192.202 182.885 C 192.035 182.342,191.781 181.825,191.638 181.737 C 191.258 181.502,190.179 179.003,189.983 177.902 C 189.890 177.381,189.410 176.501,188.916 175.945 C 188.355 175.315,187.849 174.335,187.569 173.337 C 187.322 172.457,186.723 171.217,186.238 170.581 C 185.752 169.945,185.213 168.988,185.038 168.454 C 184.864 167.919,184.501 167.198,184.231 166.851 C 183.962 166.505,183.741 166.058,183.741 165.860 C 183.741 165.661,183.632 165.499,183.498 165.499 C 183.365 165.499,183.047 164.934,182.793 164.243 C 182.538 163.553,182.180 162.809,181.998 162.591 C 181.816 162.373,181.585 161.866,181.485 161.465 C 181.385 161.064,181.208 160.677,181.092 160.605 C 180.976 160.533,180.676 159.821,180.424 159.021 C 180.173 158.222,179.876 157.568,179.765 157.568 C 179.369 157.568,178.497 155.744,178.193 154.281 C 177.973 153.220,177.623 152.512,176.974 151.810 C 176.207 150.980,175.281 148.876,175.281 147.963 C 175.281 147.823,174.865 147.200,174.356 146.579 C 173.847 145.958,173.430 145.373,173.430 145.280 C 173.430 145.118,171.798 141.749,171.314 140.912 C 171.188 140.694,170.914 140.159,170.706 139.722 C 170.497 139.286,169.970 138.275,169.533 137.475 C 169.097 136.675,168.657 135.643,168.557 135.180 C 168.456 134.718,168.194 134.190,167.974 134.008 C 167.389 133.522,166.674 131.983,166.305 130.417 C 166.126 129.657,165.589 128.534,165.104 127.905 C 164.621 127.280,164.040 126.133,163.812 125.357 C 163.381 123.886,162.437 122.141,162.071 122.141 C 161.955 122.141,161.585 121.457,161.249 120.621 C 160.914 119.785,160.425 118.744,160.163 118.308 C 159.901 117.872,158.965 116.028,158.084 114.210 C 157.202 112.393,156.346 110.668,156.181 110.377 C 155.134 108.529,154.713 107.580,154.422 106.416 C 154.241 105.691,153.687 104.534,153.191 103.844 C 152.696 103.155,152.040 101.844,151.735 100.932 C 151.430 100.019,150.898 98.974,150.552 98.609 C 150.206 98.244,149.558 97.059,149.111 95.976 C 148.664 94.893,148.200 93.943,148.079 93.864 C 147.958 93.785,147.502 93.007,147.066 92.135 C 146.630 91.262,145.960 89.966,145.576 89.253 C 145.192 88.541,144.877 87.768,144.877 87.535 C 144.877 87.302,144.401 86.412,143.821 85.557 C 143.240 84.702,142.643 83.551,142.494 82.999 C 142.346 82.447,141.899 81.718,141.502 81.379 C 141.105 81.040,140.451 80.258,140.049 79.641 C 139.647 79.024,139.222 78.519,139.105 78.519 C 138.915 78.519,137.538 77.336,135.625 75.528 C 135.261 75.185,134.530 74.644,134.000 74.328 C 133.469 74.011,132.842 73.456,132.606 73.095 C 132.369 72.734,131.970 72.438,131.719 72.436 C 131.011 72.432,128.569 71.217,128.299 70.734 C 128.010 70.219,126.124 69.684,122.586 69.114 C 121.158 68.883,119.552 68.497,119.017 68.254 C 118.126 67.850,114.726 67.801,78.916 67.680 L 39.788 67.548 38.851 66.965 C 37.373 66.045,36.230 64.403,35.527 62.186 C 35.173 61.071,34.603 59.859,34.260 59.492 C 33.446 58.620,32.873 57.462,32.640 56.216 C 32.536 55.664,32.247 55.014,31.997 54.771 C 31.562 54.349,31.321 53.914,29.335 49.967 C 28.341 47.990,27.376 46.160,26.828 45.208 C 26.391 44.451,25.529 42.450,25.262 41.573 C 25.162 41.246,24.990 40.978,24.881 40.978 C 24.622 40.978,23.649 38.780,23.277 37.355 C 23.117 36.743,22.837 36.089,22.655 35.901 C 21.782 35.002,21.131 33.779,20.866 32.541 C 20.616 31.375,19.594 29.670,18.979 29.393 C 18.876 29.347,18.473 28.310,18.084 27.090 L 17.377 24.871 18.065 23.418 C 19.259 20.897,13.717 21.128,70.651 21.224 C 124.013 21.314,122.835 21.287,125.019 22.456 C 125.276 22.593,127.321 22.884,129.564 23.102 C 133.752 23.510,136.120 24.042,136.664 24.697 C 136.834 24.902,137.591 25.207,138.348 25.375 C 139.104 25.544,140.496 25.852,141.441 26.061 C 142.386 26.270,143.873 26.790,144.746 27.216 C 146.688 28.166,148.198 28.817,148.455 28.817 C 148.820 28.817,153.332 31.497,153.533 31.833 C 153.644 32.018,154.104 32.295,154.557 32.449 C 155.597 32.804,157.568 34.039,157.568 34.336 C 157.568 34.460,158.081 34.757,158.709 34.997 C 159.336 35.237,160.252 35.848,160.743 36.355 C 161.235 36.862,161.774 37.277,161.941 37.277 C 162.108 37.277,162.460 37.515,162.723 37.806 C 162.986 38.096,163.332 38.336,163.491 38.337 C 163.650 38.338,164.197 38.813,164.706 39.392 C 165.215 39.971,165.755 40.445,165.907 40.447 C 166.058 40.448,166.653 40.870,167.228 41.383 C 170.252 44.081,172.108 45.896,172.108 46.153 C 172.108 46.312,172.566 46.809,173.126 47.259 C 173.685 47.709,174.293 48.438,174.476 48.881 C 174.659 49.323,175.028 49.755,175.296 49.840 C 175.564 49.925,176.050 50.434,176.375 50.972 C 176.700 51.510,177.569 52.610,178.305 53.417 C 179.914 55.180,182.429 58.878,183.868 61.597 C 184.290 62.395,184.900 63.437,185.222 63.911 C 185.544 64.386,186.015 65.458,186.270 66.293 C 186.524 67.129,186.982 68.110,187.289 68.473 C 188.163 69.509,188.688 70.621,188.895 71.875 C 189.018 72.619,189.391 73.371,189.945 73.990 C 190.419 74.518,191.096 75.545,191.452 76.272 C 191.807 76.999,192.705 78.784,193.447 80.238 C 194.190 81.692,195.107 83.596,195.485 84.468 C 195.864 85.340,196.292 86.233,196.436 86.451 C 197.035 87.359,198.008 89.571,198.294 90.679 C 198.463 91.333,198.985 92.293,199.455 92.813 C 200.068 93.492,200.397 94.205,200.621 95.344 C 200.864 96.578,201.136 97.126,201.849 97.818 C 202.354 98.306,202.906 99.131,203.077 99.650 C 203.348 100.473,204.004 101.797,206.553 106.664 C 206.861 107.252,207.315 108.289,207.561 108.968 C 207.808 109.647,208.373 110.731,208.818 111.378 C 209.262 112.024,209.827 113.352,210.072 114.329 C 210.318 115.307,210.678 116.167,210.872 116.242 C 211.460 116.468,212.261 117.998,212.587 119.517 C 212.805 120.535,213.191 121.289,213.916 122.113 C 214.478 122.751,214.937 123.415,214.937 123.588 C 214.937 123.761,215.213 124.428,215.549 125.071 C 217.140 128.107,219.151 132.171,219.594 133.245 C 219.864 133.900,220.401 134.911,220.786 135.492 C 221.172 136.074,221.703 137.323,221.967 138.268 C 222.230 139.213,222.833 140.495,223.307 141.116 C 223.781 141.738,224.249 142.689,224.347 143.231 C 224.574 144.483,225.108 145.542,225.736 145.985 C 226.183 146.301,227.435 148.735,230.945 156.114 C 231.636 157.568,232.464 159.114,232.784 159.551 C 233.104 159.987,233.513 160.939,233.693 161.666 C 234.110 163.346,234.482 164.142,235.234 164.970 C 235.564 165.334,235.958 166.107,236.108 166.689 C 236.494 168.175,237.028 169.269,237.731 170.014 C 238.063 170.366,238.534 171.071,238.778 171.580 C 239.022 172.089,240.182 174.488,241.356 176.911 C 242.529 179.335,243.490 181.374,243.490 181.443 C 243.490 181.511,243.958 182.368,244.529 183.346 C 245.101 184.325,245.648 185.592,245.744 186.162 C 245.840 186.732,246.339 187.819,246.852 188.576 C 247.365 189.334,247.899 190.311,248.038 190.747 C 248.666 192.707,249.528 193.072,249.562 191.391 C 249.572 190.876,250.561 188.777,251.061 188.207 C 251.267 187.973,251.678 187.081,251.976 186.224 C 252.274 185.367,253.331 183.001,254.326 180.965 C 255.321 178.929,256.212 176.998,256.306 176.672 C 256.556 175.812,257.775 173.695,258.022 173.695 C 258.138 173.695,258.539 172.711,258.914 171.509 C 259.289 170.306,259.865 169.034,260.193 168.681 C 260.809 168.021,261.432 166.394,261.986 164.001 C 262.160 163.249,262.531 162.428,262.810 162.175 C 263.089 161.923,263.318 161.608,263.318 161.475 C 263.318 161.343,263.612 160.592,263.972 159.805 C 264.332 159.018,264.700 158.079,264.791 157.718 C 264.882 157.356,265.123 156.922,265.327 156.753 C 265.531 156.584,265.699 156.311,265.701 156.147 C 265.703 155.983,266.239 154.791,266.891 153.496 C 267.543 152.202,268.077 151.012,268.077 150.851 C 268.077 150.438,269.368 148.023,269.928 147.389 C 270.185 147.098,270.473 146.563,270.567 146.200 C 271.093 144.178,271.705 142.640,272.183 142.140 C 272.481 141.828,272.995 140.681,273.327 139.590 C 273.924 137.629,274.335 136.645,275.093 135.360 C 275.308 134.997,276.026 133.391,276.690 131.791 C 278.237 128.063,278.887 126.673,279.488 125.802 C 279.755 125.416,279.974 124.962,279.974 124.794 C 279.974 124.166,281.283 121.651,281.798 121.291 C 282.129 121.059,282.399 120.472,282.510 119.745 C 282.609 119.100,282.776 118.453,282.881 118.308 C 282.987 118.163,283.158 117.687,283.261 117.250 C 283.364 116.814,283.715 116.160,284.042 115.796 C 284.369 115.433,284.974 114.069,285.387 112.766 C 285.800 111.463,286.362 110.157,286.635 109.863 C 286.909 109.570,287.203 109.030,287.291 108.664 C 287.378 108.297,287.533 107.878,287.636 107.733 C 287.739 107.588,287.980 106.874,288.173 106.147 C 288.366 105.420,288.741 104.541,289.007 104.194 C 289.273 103.848,289.491 103.453,289.491 103.318 C 289.491 102.949,291.101 99.686,291.363 99.524 C 291.489 99.446,291.723 98.896,291.883 98.301 C 292.210 97.086,293.314 95.287,293.861 95.077 C 294.059 95.001,294.299 94.486,294.395 93.933 C 294.740 91.939,295.358 90.132,295.938 89.422 C 296.551 88.673,297.255 86.949,297.553 85.468 C 297.648 85.000,297.988 84.227,298.309 83.750 C 298.631 83.272,299.115 82.287,299.385 81.560 C 299.655 80.833,300.454 79.011,301.161 77.512 C 301.867 76.013,302.445 74.702,302.445 74.599 C 302.445 74.496,302.743 73.975,303.106 73.440 C 303.470 72.905,303.767 72.304,303.767 72.106 C 303.767 71.505,304.992 69.168,305.588 68.631 C 305.895 68.354,306.147 67.960,306.147 67.755 C 306.147 67.375,306.771 65.222,307.261 63.913 C 307.410 63.513,307.637 63.186,307.764 63.186 C 308.059 63.186,308.848 61.388,309.446 59.352 C 309.703 58.480,310.122 57.469,310.378 57.105 C 310.634 56.742,311.176 55.492,311.581 54.329 C 311.987 53.166,312.514 51.917,312.754 51.553 C 312.994 51.190,313.520 50.181,313.924 49.311 C 314.328 48.441,314.884 47.412,315.161 47.023 C 315.438 46.634,315.664 46.141,315.664 45.927 C 315.664 45.228,317.017 42.460,317.536 42.097 C 317.815 41.901,318.044 41.595,318.044 41.417 C 318.044 40.651,319.356 37.171,319.722 36.966 C 320.318 36.633,320.922 35.265,321.393 33.182 C 321.624 32.163,321.892 31.269,321.989 31.196 C 322.307 30.959,323.546 28.183,323.850 27.029 C 324.369 25.057,327.279 21.584,329.014 20.866 C 329.305 20.745,338.586 20.671,349.636 20.700 L 369.729 20.753 370.787 21.367 M149.736 114.541 C 150.097 115.014,150.628 115.936,150.916 116.590 C 151.203 117.244,151.723 118.077,152.070 118.440 C 152.417 118.804,152.901 119.806,153.145 120.668 C 153.398 121.559,153.916 122.586,154.346 123.048 C 154.762 123.494,155.317 124.455,155.579 125.182 C 155.841 125.909,156.155 126.631,156.277 126.788 C 156.960 127.665,162.200 138.404,162.643 139.833 C 162.944 140.806,163.479 141.841,163.897 142.259 C 164.338 142.700,164.808 143.638,165.090 144.643 C 165.345 145.554,165.894 146.723,166.309 147.241 C 166.725 147.759,167.245 148.696,167.466 149.323 C 167.687 149.951,168.086 150.784,168.354 151.174 C 168.622 151.564,169.165 152.581,169.560 153.433 C 169.955 154.285,170.462 155.166,170.687 155.391 C 171.980 156.684,167.992 163.120,165.897 163.120 C 165.748 163.120,165.471 163.367,165.282 163.670 C 165.093 163.973,164.440 164.444,163.831 164.716 C 163.222 164.989,162.411 165.603,162.029 166.082 C 161.648 166.561,160.875 167.191,160.312 167.482 C 159.749 167.773,159.032 168.308,158.719 168.672 C 158.405 169.035,157.691 169.564,157.131 169.847 C 156.572 170.131,155.876 170.563,155.585 170.808 C 155.294 171.054,154.759 171.344,154.395 171.454 C 154.032 171.564,153.035 172.128,152.180 172.707 C 151.325 173.287,149.930 174.033,149.079 174.367 C 148.228 174.700,147.170 175.231,146.728 175.545 C 146.277 175.866,144.885 176.330,143.555 176.603 C 142.252 176.870,140.797 177.294,140.322 177.546 C 139.847 177.797,139.042 178.220,138.533 178.486 C 137.677 178.932,136.253 179.223,132.420 179.736 C 131.602 179.845,130.650 180.119,130.305 180.344 C 129.959 180.569,129.022 180.905,128.222 181.091 C 127.422 181.276,126.411 181.559,125.975 181.720 C 125.417 181.926,116.411 182.034,95.572 182.084 C 62.968 182.162,65.133 182.077,63.846 183.327 L 62.921 184.226 62.921 214.686 C 62.921 249.887,63.100 247.893,59.881 248.661 C 59.445 248.765,58.998 248.901,58.887 248.963 C 58.563 249.145,20.252 249.083,19.685 248.900 C 18.070 248.378,17.240 247.858,16.653 247.000 L 15.995 246.039 16.052 192.553 C 16.115 134.651,16.018 138.379,17.490 137.046 C 17.831 136.737,18.380 136.344,18.710 136.174 C 19.163 135.940,31.123 135.867,67.355 135.877 C 119.355 135.892,121.062 135.848,123.331 134.441 C 123.622 134.260,125.252 133.727,126.953 133.256 C 129.415 132.574,130.134 132.266,130.473 131.748 C 130.708 131.390,131.430 130.870,132.077 130.592 C 133.210 130.107,134.278 129.237,136.986 126.595 C 137.680 125.919,138.343 125.324,138.461 125.273 C 138.578 125.223,139.148 124.591,139.727 123.870 C 140.306 123.148,141.159 122.221,141.623 121.808 C 142.087 121.395,142.609 120.617,142.785 120.079 C 142.960 119.541,143.423 118.625,143.814 118.044 C 144.205 117.462,144.603 116.808,144.699 116.590 C 145.333 115.155,146.293 114.243,147.461 113.967 C 148.978 113.609,149.037 113.624,149.736 114.541 " stroke="none" fill="#fbfbfb" fill-rule="evenodd"></path></g></svg>