<?xml version="1.0" standalone="no"?>
<!DOCTYPE svg PUBLIC "-//W3C//DTD SVG 20010904//EN"
 "http://www.w3.org/TR/2001/REC-SVG-20010904/DTD/svg10.dtd">
<svg version="1.0" xmlns="http://www.w3.org/2000/svg"
 width="50.000000pt" height="47.000000pt" viewBox="0 0 50.000000 47.000000"
 preserveAspectRatio="xMidYMid meet">
<metadata>
Created by potrace 1.10, written by Peter Selinger 2001-2011
</metadata>
<g transform="translate(0.000000,47.000000) scale(0.050000,-0.050000)"
fill="#55e1cf" stroke="none">
<path d="M390 744 l-160 -96 -6 -180 c-6 -206 -13 -195 192 -314 156 -91 134
-92 325 18 l159 92 0 193 0 194 -162 94 c-196 114 -155 114 -348 -1z m130 -62
c0 -10 -13 -23 -30 -29 -24 -9 -29 -46 -27 -177 2 -93 7 -128 12 -81 9 105 45
93 45 -15 0 -77 -62 -154 -103 -128 -36 22 -20 404 18 426 44 26 85 28 85 4z
m161 -3 c73 -39 54 -186 -31 -236 -60 -36 -70 -52 -70 -118 0 -55 -11 -82 -42
-102 -55 -34 -74 -13 -31 33 18 21 33 68 33 106 0 58 11 75 70 107 73 39 103
156 45 177 -28 10 -144 -43 -129 -59 6 -6 29 -1 51 11 58 31 63 29 63 -36 0
-34 -13 -63 -32 -70 -59 -23 -74 -12 -38 28 20 22 26 40 14 40 -12 0 -27 -9
-34 -20 -25 -40 -70 -20 -70 30 0 81 126 149 201 109z"/>
</g>
</svg>
